Patient4_TMGait_0pt4_03_right_05_EMG.mot
version=1
nRows=40
nColumns=33
inDegrees=no
endheader
time	1LAddLong	2LGlutMax	3LGlutMed	4LIliopsoas	5LSemiMemb	6LBicFemLong	7LRecFem	8LVastMed	9LVastLat	10LGasMed	11LTibAnt	12lTibPost	13LPeroneusLong	14LSol	15LExtDigLong	16LFlexDigLong	17RAddLong	18RGlutMax	19RGlutMed	20RIliopsoas	21RSemiMemb	22RBicFemLong	23RRecFem	24RVastMed	25RVastLat	26RGasMed	27RTibAnt	28RTibPost	29RPeroneusLong	30RSol	31RExtDigLong	32RFlexDigLong
6.838	0.00946	-0.070953	-0.018158	0.027008	0.018158	-0.015564	-0.026245	0.000305	-0.26093	0.16998	0.032501	-0.10513	-0.24628	0.41962	0.009918	0.56091	0.005493	-0.10147	0.068207	0.21103	-0.080566	0.2887	-0.020599	0.009155	-0.005493	-0.005798	0.003967	-0.01236	0.92422	0.001984	0.005188	-0.007324
6.839	0.001373	-0.045013	-0.01297	0.020294	0.010071	-0.001831	0.022125	0.01709	-0.16647	0.067749	-0.008698	0.052032	-0.23911	0.21622	0.006104	0.12848	0.013275	-0.13916	0.22201	0.15213	-0.066833	0.2829	-0.002289	-0.004578	0.004578	-0.009613	-0.11215	-0.006256	0.80948	-0.011902	-0.007629	-0.019989
6.84	-0.002289	-0.032501	0.049591	0.003357	0.006866	0.013428	-0.029449	0.031586	-0.089569	0.070343	-0.015259	-0.018158	-0.17487	-0.21469	0.019684	0.25162	0.024872	-0.076904	-0.25406	0.078278	0.058594	0.25848	0.029144	-0.016632	0.000458	0.001831	-0.14008	-0.00824	0.46204	-0.004578	-0.00824	-0.036163
6.841	-0.006409	0.018616	0.030365	0.002136	0.011597	0.016632	-0.047913	0.024414	-0.030823	0.045166	-0.027313	0.080719	0.00885	0.14008	0.014648	-0.32257	0.035248	-0.002441	-0.71808	-0.018158	0.17166	0.25192	0.032196	-0.041962	-0.02243	0.020599	-0.10132	-0.011902	0.26215	-0.004883	-0.009003	-0.061188
6.842	0.001068	0.026398	-0.007019	0.000305	0.013733	0.009613	0.014648	0.007935	-0.013428	0.060883	-0.019073	-0.069733	-0.047455	0.013428	0.009155	0.81284	0.068512	0.042419	-0.75607	-0.12558	-0.023193	0.30319	0.049896	-0.037689	-0.011597	0.029449	-0.060883	-0.005035	0.13962	0.016479	0.001373	-0.0914
6.843	0.006866	0.016174	0.097656	-0.007477	0.010986	-0.013885	0.051727	0.001678	-0.043945	0.092773	-0.005188	-0.26199	-0.085907	0.48767	-0.025024	0.2179	0.026703	-0.007782	-0.37308	-0.21637	-0.25879	0.43594	0.011292	-0.020294	0.01297	0.041809	0.019073	-0.011444	0.010376	0.028381	-0.00946	-0.11414
6.844	0.000763	0.055695	0.084534	0.000763	0.014343	-0.016327	0.016174	-0.002441	0.053253	0.001984	-0.008545	-0.10574	-0.039978	0.60028	-0.06012	0.056152	-0.015564	0.024109	0.30441	-0.18631	-0.38498	0.48721	-0.014496	0.045319	0.016022	0.056763	0.030518	-0.009918	0.012817	0.010071	-0.010681	-0.1297
6.845	0.039825	-0.028992	0.18249	-0.010529	0.011597	-0.002594	0.003662	-0.020752	0.030365	0.014191	-0.015869	0.2095	0.10864	0.58518	-0.02655	0.013733	-0.013733	-0.078278	-0.46982	0.018921	-0.046082	0.43213	0.006866	0.06424	0.003052	0.070648	0.03418	-0.00412	-0.003052	-0.009766	0.003052	-0.1384
6.846	-0.026245	-0.022888	0.20203	-0.010223	0.007935	0.003967	0.028534	-0.003815	0.03006	0.029449	-0.01358	-0.021057	0.14587	0.48263	-0.027161	-0.22522	-0.041962	-0.019836	-0.70435	0.038605	0.29114	0.37918	0.00885	0.02243	0.01358	0.089417	0.023346	-0.004425	0.021973	-0.016327	-0.005798	-0.13687
6.847	-0.006561	-0.021057	0.15686	-0.008392	0.021667	0.004883	0.035248	-0.004425	0.004425	0.052032	-0.009918	-0.041046	0.17181	0.18997	-0.029602	0.19363	-0.009155	-0.007019	0.43716	-0.068359	0.15808	0.27374	-0.008392	0.012665	0.015869	0.10498	0.009918	-0.012665	-0.32638	0.003815	-0.003204	-0.13138
6.848	0.000763	-0.046539	0.076904	-0.00885	0.008087	0.011749	0.044098	-0.011902	-0.046997	0.090332	0.015106	-0.054779	0.1564	-0.13077	-0.0383	-0.54825	0.0177	-0.074615	0.64316	-0.07309	-0.029602	0.21347	-0.051727	0	0.009155	0.11231	-0.019379	-0.005035	-0.38422	0.021667	-0.000763	-0.11688
6.849	0.005493	-0.039215	0.021667	0.030518	0.011292	0.002594	0.046234	0.005341	-0.085449	0.027161	-0.002899	-0.027466	0.10635	-0.21149	-0.010834	0.17075	0.035858	-0.10132	0.26306	0.001831	-0.074921	0.25055	-0.002441	-0.008545	0.006866	0.12054	-0.018768	-0.003204	-0.063477	0.005646	-0.007019	-0.10849
6.85	0.008545	-0.093842	-0.081635	0.018768	0.014954	0.000153	0.029297	0.006104	-0.085449	-0.007172	0.00061	-0.014496	0.079193	-0.33615	0.006104	0.083618	0.027771	-0.093079	-0.4097	0.096741	-0.11597	0.26749	-0.023193	-0.02243	0.004272	0.11917	-0.011444	-0.012665	0.012512	0.010223	0.003662	-0.089722
6.851	0.004425	-0.13657	-0.15961	0.002441	0.01358	0.013733	0.027161	0.006104	-0.049896	-0.053711	-0.005188	-0.01709	0.068359	-0.51178	0.001984	-0.21316	0.006714	-0.081024	-0.53787	0.1294	-0.18951	0.2919	-0.010529	0.005951	0.009308	0.11658	-0.00061	-0.009003	0.0914	0.032654	-0.001221	-0.079651
6.852	0.003967	-0.10056	-0.12512	-0.01709	0.011749	-0.002441	0.015411	-0.008698	-0.042267	-0.094299	-0.000458	-0.016022	0.034332	-0.51804	0.008392	-0.13031	-0.01709	-0.020905	-0.054016	-0.02121	0.029297	0.28137	-0.02121	0.0737	0.013733	0.10925	0.009766	-0.003204	0.27557	0.042267	-0.005341	-0.059509
6.853	0.005341	-0.071259	-0.17624	0.00824	0.020142	0.01358	0.038452	0.003815	-0.032501	-0.17105	-0.004578	-0.003815	-0.00885	-0.078735	0.049896	0.1059	-0.023651	0.002289	0.27069	-0.11017	0.16022	0.30975	-0.067444	0.10086	0.02533	0.095673	-0.005188	-0.004883	0.3685	-0.039978	0.001526	-0.037994
6.854	0.003357	-0.054626	0.088043	0.012665	0.016785	-0.009613	0.036774	0.002899	0.006561	-0.19012	-0.015411	-0.024872	-0.065765	0.13199	0.032959	-0.088806	-0.022736	-0.036926	0.29755	-0.14694	-0.10025	0.34088	-0.027008	0.060577	0.023804	0.072174	-0.014496	-0.007935	-0.16205	-0.066986	0.003357	-0.021973
6.855	0.005035	-0.080414	0.10834	0.004578	0.005798	0.007935	0.050812	0.010986	-0.041962	-0.11307	-0.00885	0.08194	-0.083008	0.098419	0.040894	0.00351	-0.002899	-0.071106	0.13962	0.005188	-0.032806	0.30533	-0.062103	0.034943	0.019836	0.046082	-0.020447	-0.005035	-0.2948	-0.043182	-0.003815	-0.012054
6.856	0.01297	-0.077515	0.075684	0.000458	0.00885	0.01236	0.028076	0.010223	-0.11032	0.13931	-0.002441	0.009613	-0.078888	0.081635	0.031738	0.084686	0.027008	-0.007629	-0.22385	0.15366	-0.055084	0.33447	-0.045166	-0.0177	0.019684	0.021057	-0.020599	-0.003662	-0.04425	0.000305	-0.012512	-0.002747
6.857	0.002441	-0.074615	0.10788	-0.003967	0.006714	0.003967	0.036621	0.009613	-0.080719	0.40878	-0.005493	-0.037689	-0.029449	0.094452	0.036621	-0.030975	0.053864	-0.010529	-0.30518	0.14725	-0.18646	0.41016	0.00061	-0.046997	0.018005	-0.00061	-0.008392	-0.013733	0.037994	0.010376	0.005493	-0.003662
6.858	0.004272	-0.041046	0.11383	0.007172	0.007782	0.006714	0.050964	0.012665	-0.029907	0.57953	-0.006561	0.009308	0.013733	0.1004	0.046234	-0.24368	0.050507	-0.080872	0.30991	-0.18051	-0.26581	0.29663	-0.026398	-0.0737	0.022125	-0.021057	-0.001678	-0.006866	-0.097656	-0.02182	0.004272	-0.002136
6.859	0.000153	-0.054474	0.052185	0.011749	0.012207	-0.005188	0.046539	0.005646	-0.029449	0.34744	-0.02243	-0.002441	0.10712	0.083923	0.000916	0.15091	0.031433	-0.071716	0.30716	-0.35889	-0.21759	0.25894	-0.042877	-0.071106	0.025635	-0.026398	0.021057	-0.00824	-0.16327	-0.015869	0.000153	0.010681
6.86	0.007019	-0.061188	0.061646	0.021057	0.015717	-0.016022	-0.010986	0.011444	-0.039825	0.16632	-0.010071	-0.028992	0.121	-0.030518	0.002899	0.069885	0.00473	-0.085144	0.007172	-0.29297	0.088043	0.24612	-0.056763	0.002747	0.031738	-0.034943	0.006561	-0.004883	-0.054321	-0.003357	-0.012207	0.012054
6.861	0.011749	-0.091705	0.063171	0.007782	0.017242	-0.010681	0.007935	-0.000763	-0.024872	-0.30136	-0.013885	-0.024872	0.068207	-0.083466	-0.030212	0.014496	-0.011444	-0.056305	-0.18143	0.022125	0.27039	0.20447	-0.1178	0.07019	0.053101	-0.034332	-0.031281	-0.006866	-0.19928	0.02182	-0.004272	0.012054
6.862	0.00946	-0.075836	0.088806	-0.00412	0.017242	-0.001526	0.036926	0.006409	-0.029755	-0.29511	-0.000916	-0.002136	0.054016	0.08194	-0.040283	0.2417	-0.006104	-0.00473	0.20706	0.23758	0.036469	0.12955	-0.044098	0.086823	0.047913	-0.03952	-0.052032	-0.007019	-0.29663	0.02533	-0.007019	0.013123
6.863	0.001678	-0.085144	0.087433	-0.005646	0.014648	-0.005798	0.052643	0.062256	-0.026093	-0.19409	-0.003662	0.025635	0.10056	0.16678	-0.001068	0.06073	0.005646	-0.037842	0.2298	0.32303	-0.078888	0.05188	-0.073547	0.016785	0.01709	-0.036621	-0.003052	-0.005646	-0.513	0.031281	-0.002289	0.017395
6.864	-0.002289	-0.05188	0.077209	-0.016327	0.013733	-0.002594	0.062103	0.065918	-0.039825	-0.23743	0.001678	0.11108	0.070343	-0.16998	0.0383	-0.15793	-0.003967	-0.048523	-0.086365	0.23056	-0.095673	0.044708	-0.054169	0.044098	0.021057	-0.044861	0.032501	-0.006866	0.037384	0.002441	-0.005188	0.016022
6.865	0.002747	-0.057983	0.093231	-0.002136	0.015564	-0.011139	0.022125	0.019836	-0.053711	-0.21133	0.005646	0.056305	0.010834	-0.39169	0.01236	-0.095367	-0.015564	-0.072937	0.037079	0.014038	0.059814	0.17273	-0.055695	0.071259	0.03067	-0.039368	0.00946	-0.003357	1.3391	-0.021973	0.00351	0.004272
6.866	-0.000916	-0.052643	0.086823	0.013885	0.015869	-0.018158	-0.007782	0.000153	-0.059204	-0.15091	0.000305	-0.078583	-0.025482	-0.55328	0.004578	-0.77621	-0.008392	-0.10376	-0.32028	0.030212	0.20828	0.17731	-0.066376	0.036469	0.028992	-0.037537	0.025024	-0.006409	0.42557	-0.027313	0.000763	0.006104
6.867	0.002289	-0.060883	0.092316	0.04303	0.011139	-0.00946	-0.06485	-0.000763	-0.063171	-0.047302	-0.001678	-0.071259	0.050049	-0.14954	0.004578	0.22308	-0.007935	-0.062866	-0.23682	0.14801	-0.057831	0.10407	-0.052795	0.041962	0.027466	-0.038147	-0.016327	-0.007629	-0.51025	-0.03479	0.001984	0.011139
6.868	-0.004578	-0.029755	0.084534	0.016327	0.026703	-0.023346	-0.049744	-0.00473	-0.062103	0.042419	-0.012665	-0.027924	0.056458	0.45197	0.006714	0.20386	-0.016785	-0.086975	-0.033569	0.18265	-0.17578	0.022736	-0.053864	0.053864	0.023346	-0.030365	-0.035706	-0.006714	-0.49072	-0.027924	0.003662	0.001678
6.869	-0.003967	-0.052795	0.076141	0.007019	0.015717	-0.03479	-0.020905	0.007477	-0.028381	0.78476	0	-0.009155	0.016937	0.36331	-0.006866	0.059662	-0.024719	-0.1091	0.033417	0.20584	-0.29694	0.080414	-0.063019	0.048981	0.018005	-0.036926	-0.020142	-0.006104	-0.038757	0.050964	-0.001068	0.006561
6.87	0.005188	-0.002747	0.10117	0	0.019989	-0.038757	0.029144	-0.011444	0.020142	1.3358	-0.010681	0.040588	0.003357	0.2652	0.006409	0.058441	-0.016785	-0.089874	-0.21149	0.12863	-0.23102	0.035553	-0.071106	0.048065	0.019684	-0.039673	-0.037842	-0.012512	0.11475	0.070648	-0.003662	0.001678
6.871	0.006256	-0.028229	0.1062	0.000153	0.020752	-0.025177	0.099792	0.007477	0.037689	0.9111	-0.005798	0.19104	-0.014801	0.16266	0.037231	-0.39352	0.00824	-0.097809	0.007782	0.063477	-0.010529	-0.037994	-0.008087	0.012512	0.016632	-0.038147	-0.032806	-0.010529	-0.01709	0.057678	-0.00351	0.011597
6.872	0.00351	-0.05249	0.050201	0.000305	0.022736	-0.010376	0.066681	0.006866	-0.014954	0.62424	-0.007477	0.044556	-0.00824	-0.061035	0.041656	0.32028	0.024719	-0.0914	-0.19913	-0.044861	-0.084991	-0.072479	-0.019989	-0.020294	0.001984	-0.032806	-0.06546	-0.006714	0.016632	0.070648	-0.003204	0.01297
6.873	0.003967	-0.041199	0.040283	0.006104	0.00885	0.008392	0.051575	-0.010986	-0.042267	0.91538	-0.008698	-0.3389	-0.037842	-0.48981	-0.002136	0.33127	0.043335	-0.085602	-0.20554	-0.051117	-0.16083	-0.10223	-0.030365	-0.054169	0.019226	-0.027466	-0.069275	-0.009766	0.050964	0.062408	-0.00946	0.015869
6.874	0.00473	-0.055542	0.034637	0.014801	0.002289	0.00473	0.0354	0.003815	-0.055389	1.2259	-0.000763	0.003204	-0.078583	-0.41367	-0.008087	0.14145	0.063782	-0.036469	-0.000153	-0.047607	-0.10056	-0.12131	-0.000153	-0.09079	0.025177	-0.024567	-0.048676	-0.010834	0.25787	-0.015717	-0.006866	0.014191
6.875	0.007629	-0.028229	0.039368	0.005035	0.009308	0.002136	0.03479	0.004883	-0.06485	0.18967	0.006104	0.056763	-0.055542	-0.14862	-0.055389	-0.13489	0.067444	-0.055084	0.27618	-0.046692	-0.086365	-0.096893	-0.011139	-0.038605	0.035858	-0.029144	-0.032654	-0.010529	0.42984	-0.007324	0.005493	0.007324
6.876	0.004425	-0.047607	-0.003204	0.004425	0.016632	-0.002899	0.050659	0.00412	-0.009918	-0.57007	0.009308	0.034943	-0.062103	0.071716	-0.081177	-0.16739	0.012817	-0.077972	0.16403	-0.11093	-0.091858	0.030212	-0.020447	-0.045929	0.039215	-0.027313	-0.04303	-0.018768	0.38132	0.011139	-0.002289	0.014038
6.877	0.006866	-0.014191	0.036621	0.005493	0.014343	0.01236	0.049133	0.011902	0.010376	-1.2199	0.018921	0.1033	0.02594	0.10941	-0.12085	-0.12146	-0.045166	-0.083618	-0.21576	-0.13916	0.00351	0.13168	-0.031433	-0.019226	0.037079	-0.024261	-0.055389	-0.008698	0.094147	0.019836	0.005341	0.00946
